<svg xmlns="http://www.w3.org/2000/svg" viewBox="0 0 96 96" id="tacos"><path fill="#f08080" d="M65.39,79.28H8.62A7.62,7.62,0,0,1,1,71.67a36,36,0,1,1,72,0A7.61,7.61,0,0,1,65.39,79.28Z"></path><path fill="#f04962" d="M8.62,74.28A2.61,2.61,0,0,1,6,71.67a31,31,0,1,1,62,0,2.61,2.61,0,0,1-2.61,2.61Z"></path><path fill="#302d3d" d="M65.39,80.28H8.62A8.63,8.63,0,0,1,0,71.67a37,37,0,1,1,74,0A8.62,8.62,0,0,1,65.39,80.28ZM37,36.66a35,35,0,0,0-35,35,6.63,6.63,0,0,0,6.62,6.61H65.39A6.62,6.62,0,0,0,72,71.67,35,35,0,0,0,37,36.66Z"></path><rect width="11.81" height="13.62" x="3.51" y="56.32" fill="#fa764d" rx="3.47" transform="rotate(66.89 9.42 63.134)"></rect><path fill="#e6532f" d="M7.3,67.15a.47.47,0,0,1-.43-.28L5,62.39a.48.48,0,0,1,.24-.62l6.15-2.62a.46.46,0,0,1,.61.25l1.92,4.48a.46.46,0,0,1-.25.61C7,67.34,7.44,67.15,7.3,67.15Z"></path><path fill="#302d3d" d="M7.3,71.16a4.47,4.47,0,0,1-4.11-2.72L1.28,64a4.47,4.47,0,0,1,2.35-5.87l6.15-2.62a4.47,4.47,0,0,1,5.86,2.36l1.91,4.48a4.47,4.47,0,0,1-2.35,5.86C8.42,71.07,8.44,71.16,7.3,71.16Zm4.23-14c-.76,0-.8.13-7.11,2.82a2.46,2.46,0,0,0-1.3,3.24L5,67.65H5A2.47,2.47,0,0,0,8.27,69l6.14-2.63a2.46,2.46,0,0,0,1.3-3.24L13.8,58.61A2.48,2.48,0,0,0,11.53,57.11Z"></path><path fill="#06d6a0" d="M19.17,71.3c-3.53,0-6.92-2.28-7.59-5.75-.48-2.47,3.08-4.41,3.47-6.68s-1.92-5-1.19-7,4.37-2.76,5.45-4.63-.1-5.37,1.3-7,5-1.1,6.69-2.49S29,32.59,30.92,31.5s5.09.69,7.14-.06,3.35-4.17,5.51-4.54,4.53,2.4,6.74,2.4,4.63-2.77,6.73-2.4,3.49,3.81,5.51,4.54,5.28-1,7.15.06,2,4.78,3.61,6.17,5.3.83,6.7,2.49.21,5.15,1.3,7,4.69,2.58,5.44,4.63-1.57,4.88-1.19,7,4,4.23,3.47,6.68C88.36,69,85,71.3,81.44,71.3Z"></path><path fill="#56ffcd" d="M80,40.16c-1.4-1.66-5-1.1-6.7-2.49s-1.73-5.08-3.61-6.17-5.1.69-7.15-.06S59.2,27.27,57,26.9s-4.53,2.4-6.73,2.4-4.63-2.77-6.74-2.4c-2.4.41-3.53,4.27-6,4.68a2.52,2.52,0,0,0-2.14,2.47,2.48,2.48,0,0,0,2.76,2.49c2.68-.36,4.66-2,6.37-4.19l.12.07a11.47,11.47,0,0,0,5.68,1.88A11.47,11.47,0,0,0,56,32.42a.41.41,0,0,1,.11-.07c.65.65,2.13,2.84,4.74,3.79a11.18,11.18,0,0,0,5.94.18c.2,0,.13-.07.21.14,1.67,4.43,3.43,6.37,8.78,7.26,0,2.42.2,4.61,1.59,6.56a2.43,2.43,0,0,0,2,1,2.51,2.51,0,0,0,2.06-3.92C80.16,45.47,81.43,41.86,80,40.16Z"></path><path fill="#06959b" d="M19.17,66.3a3.1,3.1,0,0,1-2.32-1c1.31-1.62,2.71-3.18,3.13-5.59a11.56,11.56,0,0,0-.91-6,11.32,11.32,0,0,0,4.56-4,11.43,11.43,0,0,0,1.21-6c4.85-.91,6.94-2.19,8.84-7.43a11.23,11.23,0,0,0,6.09-.15,11.33,11.33,0,0,0,4.74-3.79c1.79,1,3.46,1.95,5.8,1.95a11.54,11.54,0,0,0,5.79-1.95c3.57,4.23,5.81,4.73,10.83,3.94,1.82,5,3.77,6.5,8.84,7.43.09,5.16,1.06,7.24,5.77,10a11.51,11.51,0,0,0-.91,6c.42,2.35,1.78,3.92,3.14,5.59a3.11,3.11,0,0,1-2.33,1Z"></path><path fill="#302d3d" d="M81.44,72.3H19.17a8.51,8.51,0,0,1-8.57-6.56c-.36-1.81.81-3.26,2-4.66,1.82-2.22,1.88-2.46.89-5.24-.51-1.45-1.05-3-.54-4.36s1.92-2.25,3.26-3c2.5-1.47,2.63-1.69,2.66-4.61,0-1.55,0-3.16,1-4.31s2.55-1.45,4.08-1.73c2.87-.53,3.06-.7,4.08-3.43.54-1.46,1.1-3,2.42-3.72s2.88-.49,4.4-.24c2.89.48,3.13.4,5-1.8,1-1.19,2.07-2.42,3.58-2.69s2.85.53,4.18,1.28c2.59,1.47,2.87,1.47,5.45,0,1.34-.75,2.72-1.54,4.18-1.28s2.56,1.5,3.58,2.69c1.87,2.2,2.12,2.28,5,1.8,1.53-.25,3.11-.51,4.41.24s1.87,2.27,2.42,3.72c1,2.74,1.21,2.9,4.08,3.43,1.52.28,3.1.57,4.07,1.73s1,2.76,1,4.31c0,2.92.15,3.14,2.66,4.61,1.35.79,2.74,1.6,3.26,3s0,2.91-.54,4.36c-1,2.78-.93,3,.9,5.24,1.17,1.42,2.31,2.83,2,4.66A8.51,8.51,0,0,1,81.44,72.3Zm-50-39.93c-.69.4-1.13,1.56-1.55,2.69-1.26,3.38-2,4-5.59,4.69-3.19.59-3.41.86-3.44,4.1,0,3.67-.54,4.49-3.64,6.31-2.83,1.66-2.93,2-1.85,5,1.24,3.52,1,4.46-1.24,7.18-.71.86-1.74,2-1.55,3a6.6,6.6,0,0,0,6.61,4.94H81.44a6.6,6.6,0,0,0,6.61-4.94c.33-1.76-3-3.82-3.48-6.32s1.79-5.37,1.24-6.88-4.15-2.36-5.37-4.47-.16-5.65-1.2-6.88-4.69-.8-6.57-2.38-2.06-5.24-3.47-6.06-4.71.84-7,0-3.69-4.21-5.34-4.5-4.13,2.42-6.56,2.42-5-2.69-6.56-2.42-3,3.67-5.35,4.5S32.81,31.56,31.42,32.37Z"></path><path fill="#b84c2e" d="M28,79.28H17.11a6.81,6.81,0,1,1,0-13.61H28a6.81,6.81,0,1,1,0,13.61Z"></path><path fill="#db653d" d="M17.11,76.28a3.81,3.81,0,1,1,0-7.61H28a3.81,3.81,0,1,1,0,7.61Z"></path><path fill="#302d3d" d="M28,80.28H17.11a7.81,7.81,0,1,1,0-15.61H28a7.81,7.81,0,1,1,0,15.61ZM17.11,66.67a5.81,5.81,0,1,0,0,11.61H28a5.81,5.81,0,1,0,0-11.61Z"></path><path fill="#b84c2e" d="M88.19,74H77.34a6.81,6.81,0,0,1,0-13.61H88.19a6.81,6.81,0,1,1,0,13.61Z"></path><path fill="#302d3d" d="M88.19,75H77.34a7.81,7.81,0,0,1,0-15.61H88.19a7.81,7.81,0,1,1,0,15.61ZM77.34,61.39a5.81,5.81,0,0,0,0,11.61H88.19a5.81,5.81,0,1,0,0-11.61Z"></path><rect width="18.52" height="18.52" x="70.97" y="44.75" fill="#f9c74f" rx="1.15" transform="rotate(30 80.23 54.002)"></rect><rect width="12.52" height="12.52" x="73.97" y="47.75" fill="#fff48e" transform="rotate(120 80.232 54.008)"></rect><path fill="#302d3d" d="M83.2,67.24c-.82,0,.09.39-15.13-8.4a2.15,2.15,0,0,1-.78-2.93L75.4,41.85a2.15,2.15,0,0,1,2.93-.78l14.06,8.11a2.14,2.14,0,0,1,.78,2.93L85.06,66.17A2.15,2.15,0,0,1,83.2,67.24ZM77.26,42.78c-.13,0,.44-.91-8.24,14.13-.11.2-.79-.29,14.11,8.31h0a.17.17,0,0,0,.2,0c8.54-14.8,8.25-14.14,8.06-14.26C76.9,42.55,77.36,42.78,77.26,42.78Z"></path><path fill="#ee4266" d="M59.71,40.19A10.62,10.62,0,1,1,49.09,29.58,10.62,10.62,0,0,1,59.71,40.19Z"></path><path fill="#302d3d" d="M49.09,51.81A11.62,11.62,0,1,1,60.71,40.19,11.64,11.64,0,0,1,49.09,51.81Zm0-21.23a9.62,9.62,0,1,0,9.62,9.61A9.63,9.63,0,0,0,49.09,30.58Z"></path><rect width="11.81" height="13.62" x="18.91" y="44.41" fill="#fa764d" rx="3.47" transform="rotate(26.21 24.827 51.21)"></rect><path fill="#302d3d" d="M23.56,59.3h0l-4.37-2.15a4.47,4.47,0,0,1-2-6l3-6a4.47,4.47,0,0,1,6-2l4.37,2.15a4.46,4.46,0,0,1,2,6l-3,6A4.47,4.47,0,0,1,23.56,59.3Zm.88-1.8a2.47,2.47,0,0,0,3.31-1.12l2.95-6a2.48,2.48,0,0,0-1.13-3.31L25.2,44.93a2.48,2.48,0,0,0-3.31,1.12l-2.95,6a2.47,2.47,0,0,0,1.13,3.3l4.37,2.15Z"></path><path fill="#f8ad9d" d="M89.92,71.67a7.61,7.61,0,0,1-7.61,7.61h-72a7.61,7.61,0,0,0,7.62-7.61,36,36,0,1,1,72,0Z"></path><path fill="#f08080" d="M87.24,67.12a2.5,2.5,0,0,0-2.38,2.67c0,.62.06,1.25.06,1.88a2.6,2.6,0,0,1-2.61,2.61H25a2.13,2.13,0,0,1-2.13-2.19c0-.56,0-1.11,0-1.76a2.5,2.5,0,0,0-5-.26c0,.53,0,1.06,0,1.6a7.61,7.61,0,0,1-7.62,7.61h72a7.61,7.61,0,0,0,7.61-7.61c0-.75,0-1.49-.07-2.23A2.5,2.5,0,0,0,87.24,67.12Z"></path><path fill="#ffdab9" d="M77.59,71.28H30.26a4,4,0,0,1-4-3.86,1.37,1.37,0,0,1,1-1.27,1.49,1.49,0,0,0,.53-2.38,1.28,1.28,0,0,1-.33-1.32c1.81-5.21,3.31-5.5,2.61-6.61a1.58,1.58,0,0,1,1.77-2.35,1,1,0,0,0,1.06-.32,28,28,0,0,1,40.16-1.94,1,1,0,0,1,.19,1.11,1.9,1.9,0,0,0,2.22,2.45.91.91,0,0,1,1,.29,29.23,29.23,0,0,1,2.09,3.31,1,1,0,0,0,.94.57,1.45,1.45,0,0,1,1,2.42c-.73.7.16,1.2.9,5.25A4,4,0,0,1,77.59,71.28Z"></path><path fill="#fff" d="M64.48,51.23a2.46,2.46,0,0,0,3.26-1,2.49,2.49,0,0,0-1-3.43A27.92,27.92,0,0,0,36.23,50a2.5,2.5,0,0,0,3.17,3.86A22.94,22.94,0,0,1,64.48,51.23Z"></path><path fill="#302d3d" d="M82.31,80.28h-72a1,1,0,1,1,0-2,6.61,6.61,0,0,0,6.62-6.61,37,37,0,1,1,74,0A8.61,8.61,0,0,1,82.31,80.28Zm-66.49-2H82.31a6.6,6.6,0,0,0,6.61-6.61,35,35,0,1,0-70,0A8.5,8.5,0,0,1,15.82,78.28Z"></path><path fill="#302d3d" d="M76.85,72.67H31a1,1,0,1,1,0-2H76.85a1,1,0,0,1,0,2Z"></path><circle cx="34.77" cy="61.94" r="1.82" fill="#f8ad9d"></circle><circle cx="46.58" cy="66.63" r=".92" fill="#f8ad9d"></circle><circle cx="50.71" cy="56.58" r="2.21" fill="#f8ad9d"></circle><circle cx="60.38" cy="63.29" r="1.5" fill="#f8ad9d"></circle><circle cx="64.08" cy="55.67" r=".83" fill="#f8ad9d"></circle><circle cx="72.13" cy="63.76" r=".62" fill="#f8ad9d"></circle><circle cx="54.65" cy="67.54" r=".62" fill="#f8ad9d"></circle><circle cx="26.31" cy="56.88" r="1.35" fill="#ffdab9"></circle></svg>