<svg xmlns="http://www.w3.org/2000/svg" viewBox="0 0 512 512" id="cocktail"><circle cx="370.02" cy="122.14" r="75.77" fill="#97d729"></circle><path fill="#8bc727" d="M388.06 48.54A75.77 75.77 0 0 1 322 180.73a75.77 75.77 0 1 0 66.06-132.19Z"></path><path fill="#eaf6ff" d="M239.34 309.84v132.09a11.54 11.54 0 0 0 7.35 10.79l75.14 28.88a11.72 11.72 0 0 1 5.47 4.4 11.89 11.89 0 0 1 2.07 6.72 11.76 11.76 0 0 1-11.69 11.83H123a11.52 11.52 0 0 1-8.26-3.47 11.9 11.9 0 0 1 4.11-19.43L194 452.72a11.52 11.52 0 0 0 7.35-10.79V309.84a24.91 24.91 0 0 0-10.92-20.67l-30.68-20.73a205.11 205.11 0 0 1-60.31-63.3q-2.59-4.27-5-8.67a207.56 207.56 0 0 1-23-68.58 5 5 0 0 1 5-5.75h287.85a5 5 0 0 1 4.95 5.75 207.81 207.81 0 0 1-23.31 69.17 205.13 205.13 0 0 1-65 71.38l-30.68 20.73c-.49.34-1 .69-1.44 1.05a25 25 0 0 0-9.47 19.62Z"></path><path fill="#d8ecfe" d="M364.29 122.14h-30a5 5 0 0 1 4.95 5.75 207.81 207.81 0 0 1-23.31 69.17 205.13 205.13 0 0 1-65 71.38l-30.68 20.73c-.49.34-1 .69-1.44 1.05a25 25 0 0 0-9.48 19.62v132.09a11.54 11.54 0 0 0 7.35 10.79l75.14 28.88a11.72 11.72 0 0 1 5.48 4.4 11.89 11.89 0 0 1 2.07 6.72 11.76 11.76 0 0 1-11.69 11.83h30a11.76 11.76 0 0 0 11.69-11.83 11.89 11.89 0 0 0-2.07-6.72 11.72 11.72 0 0 0-5.47-4.35l-75.14-28.88a11.54 11.54 0 0 1-7.35-10.79V309.84a25 25 0 0 1 9.48-19.62c.46-.36 1-.71 1.44-1.05l30.68-20.73a205.13 205.13 0 0 0 65-71.38 207.81 207.81 0 0 0 23.31-69.17 5 5 0 0 0-4.96-5.75Z"></path><path fill="#fed402" d="M345.93 197.06a205.13 205.13 0 0 1-65 71.38l-30.68 20.73q-.69.52-1.44 1.05c-6.15 4.39-15.5 9.46-27.06 9.77-14.25.39-24.68-6.64-31.33-10.82l-30.68-20.73a205.11 205.11 0 0 1-60.31-63.3q-2.59-4.27-5-8.67h251.29Z"></path><path fill="#fac600" d="m316.25 196.47-.32.59a205.13 205.13 0 0 1-65 71.38l-30.68 20.73c-.49.34-1 .69-1.44 1.05a24.82 24.82 0 0 0-7 8.83 41.38 41.38 0 0 0 10 .94c11.56-.31 20.91-5.38 27.06-9.77.46-.36 1-.71 1.44-1.05l30.68-20.73a205.13 205.13 0 0 0 65-71.38l-.21-.59Z"></path><path d="M370 38.86a83.37 83.37 0 0 0-82.92 75.78h-109.4l-42.51-91.77a17.42 17.42 0 0 0-11.88-9.68L67.92.2a7.5 7.5 0 0 0-3.43 14.6l55.37 13a2.49 2.49 0 0 1 1.7 1.38l39.58 85.46H70.68a7.49 7.49 0 0 0-7.45 8.4 213.85 213.85 0 0 0 92.32 151.62L186 295.22c.58.47 1.26 1 2 1.57a17.45 17.45 0 0 1 5.81 13v132.14a4.06 4.06 0 0 1-2.54 3.79l-75.1 28.88A19.36 19.36 0 0 0 123 512h194.68a19.36 19.36 0 0 0 6.84-37.4l-75.14-28.88a4.06 4.06 0 0 1-2.54-3.79V309.84a17.46 17.46 0 0 1 5.75-13c.78-.57 1.48-1.12 2.12-1.63l30.43-20.56a212.61 212.61 0 0 0 65.94-71.42A83.28 83.28 0 1 0 370 38.86ZM79.32 129.64h88.77L195.58 189H99a200.41 200.41 0 0 1-19.68-59.36Zm239.82 359a4.34 4.34 0 0 1 2.73 4.06 4.27 4.27 0 0 1-4.19 4.33H123a4.27 4.27 0 0 1-4.19-4.33 4.34 4.34 0 0 1 2.73-4.06l75.14-28.89a19.13 19.13 0 0 0 12.16-17.79V309.84a31.82 31.82 0 0 0-.21-3.66 52.71 52.71 0 0 0 11.74 1.33h1.6a53.26 53.26 0 0 0 10.07-1.28 33.68 33.68 0 0 0-.21 3.63v132.07A19.15 19.15 0 0 0 244 459.72Zm-42.4-226.38-30.64 20.7a31.41 31.41 0 0 0-2.74 2.09 39 39 0 0 1-46-.08 30.74 30.74 0 0 0-2.65-2L164 262.23A197.47 197.47 0 0 1 107.52 204h95l18.07 39a7.51 7.51 0 0 0 13.62-6.31L219.06 204h114.11a197.34 197.34 0 0 1-56.43 58.23Zm65-73.26H212.11l-27.49-59.33h176.75A200.41 200.41 0 0 1 341.74 189Zm28.26 1.41a69.6 69.6 0 0 1-11.74-1 215.2 215.2 0 0 0 16.26-48.56l11.89 16.06a7.5 7.5 0 0 0 12.08-8.91l-13.58-18.33h21.89a7.5 7.5 0 1 0 0-15h-18.7L401 101.7a7.5 7.5 0 0 0-10.62-10.6L377.52 104V86.62a7.5 7.5 0 0 0-15 0v15.24l-11.11-13A7.5 7.5 0 0 0 340 98.67l13.68 16h-51.52A68.27 68.27 0 1 1 370 190.41Z"></path></svg>