<svg xmlns="http://www.w3.org/2000/svg" enable-background="new 0 0 68 68" viewBox="0 0 68 68" id="water-jug"><path fill="#DEE1E6" d="M59.0181,13.2507v0.06c0,7.01-3.25,13.52-8.78,17.72c-0.43-0.89-0.84-1.65-1.19-2.26l-0.7-1.34
		c4.21-3.46,6.67-8.6,6.67-14.12v-0.06c0-1.45-1.17-2.62-2.61-2.62h-7.36c0.55-1.49,1.24-2.83,1.96-4h5.4
		C56.0581,6.6307,59.0181,9.6007,59.0181,13.2507z"></path><path fill="#DEE1E6" d="M45.4111,65.9656H17.9098c-1.2611,0-2.4568-0.5881-3.2263-1.5871
			c-10.9079-14.1609-3.4044-30.3284-0.4092-35.6041c0.541-0.9529,1.1763-1.8414,1.8169-2.7303
			c9.0337-12.5365-3.466-24.0784-3.466-24.0784h38.0952c0,0-12.5232,11.5418-3.4906,24.0784
			c0.6406,0.889,1.2759,1.7775,1.8169,2.7304c2.9952,5.2758,10.4985,21.4433-0.4092,35.604
			C47.8679,65.3775,46.6722,65.9656,45.4111,65.9656z"></path><path fill="#C7CBD1" d="M47.2281,26.0407c0.64,0.89,1.28,1.78,1.82,2.73c0.2,0.35,0.41,0.74,0.64,1.18l-7.11-2.87
			c-3.53-14.07-9.18-25.12-9.18-25.12H50.718C50.718,1.9607,38.1981,13.5107,47.2281,26.0407z"></path><path fill="#DEE1E6" d="M47.4019,26.2882c0,0-34.7381,5.4779-35.6225,7.6771c-2.9732,7.3929-5.5029,19.499,2.904,30.4132
			c0.7696,0.999,1.9653,1.5871,3.2264,1.5871h27.5013c1.261,0,2.4568-0.5881,3.2264-1.5871
			c10.9077-14.1608,3.4044-30.3283,0.4092-35.6041C48.555,27.9082,47.9827,27.0967,47.4019,26.2882z"></path><path fill="#DEE1E6" d="M10.1421,55.6607l2.89,6.33C11.7221,59.8907,10.7821,57.7707,10.1421,55.6607z"></path><path fill="#C7CBD1" d="M48.6421,64.3807c-0.77,1-1.97,1.58-3.23,1.58h-27.5c-1.26,0-2.46-0.58-3.23-1.58
			c-0.61-0.79-1.16-1.59-1.65-2.39c49.42,4.2,29.55-34.74,29.55-34.74l-0.22-0.14c3.05-0.51,5.04-0.82,5.04-0.82
			c0.58,0.81,1.15,1.62,1.64,2.48C52.0421,34.0507,59.5421,50.2207,48.6421,64.3807z"></path><path d="M60.0178,13.2506c0-4.2017-3.4131-7.6201-7.6094-7.6201h-3.5479c1.2691-1.7318,2.3923-2.7955,2.5381-2.9302
		c0.3018-0.2798,0.4023-0.7163,0.252-1.0991c-0.1504-0.3833-0.5195-0.6357-0.9307-0.6357H12.6252
		c-0.4121,0-0.7813,0.2524-0.9316,0.6357c-0.1494,0.3833-0.0488,0.8198,0.2529,1.0991c0.4844,0.4468,11.7529,11.0752,3.333,22.7593
		C6.8376,37.1788,4.8832,53.2941,13.8918,64.9889c2.6642,3.4599,4.955,1.3345,31.5195,1.9766c1.5635,0,3.0654-0.7388,4.0186-1.9766
		c9.6505-12.5291,5.285-26.6751,2.0435-33.6696C56.9101,26.8908,60.0178,20.375,60.0178,13.2506z M58.0178,13.3106
		c0,6.3022-2.6973,12.1279-7.4424,16.1665c-0.1528-0.2913,0.0197,0.0519-0.9727-1.8052c4.0869-3.6558,6.415-8.8467,6.415-14.4214
		c0-1.9961-1.6191-3.6201-3.6094-3.6201h-5.8682c0.3047-0.6719,0.6504-1.3403,1.0342-2h4.834
		C55.5012,7.6305,58.0178,10.1515,58.0178,13.3106z M52.4084,11.6305c0.8877,0,1.6094,0.7266,1.6094,1.6802
		c0,4.8644-2.0396,9.4264-5.5925,12.6932c-3.1798-4.4605-4.4725-8.8819-2.7002-14.3734H52.4084z M14.8908,2.9654h33.5605
		c-5.7345,6.9129-7.474,15.1152-2.758,22.5842c-6.7831,1.0997-25.3909,4.2258-31.9122,6.3266
		C16.6464,25.9147,26.4618,16.9423,14.8908,2.9654z M47.8459,63.7682c-0.5781,0.7495-1.4873,1.1973-2.4346,1.1973
		c-27.8632-0.425-28.2817,0.9469-29.9355-1.1973c-6.7219-8.7277-6.8698-19.1365-2.8232-29.292
		c1.992-1.4657,20.9353-4.9809,34.2917-7.103c1.5024,2.1304,2.4459,4.1967,2.3964,4.0965
		C52.7577,38.3943,57.0883,51.7685,47.8459,63.7682z"></path><path fill="#FFF" d="M16.6535 54.1998c-.3047 0-.5908-.187-.7031-.4893-.6963-1.8794-1.0908-3.856-1.1709-5.876-.0166-.4136.3047-.7627.7188-.7793.4141-.0122.7637.3052.7793.7197.0752 1.8618.4375 3.6831 1.0791 5.4141.1445.3887-.0537.8203-.4424.9639C16.8283 54.1847 16.7405 54.1998 16.6535 54.1998zM15.8362 44.2545c-.043 0-.0859-.0034-.1289-.0112-.4082-.0703-.6816-.4585-.6113-.8667.3145-1.8149.8447-3.6602 1.5771-5.4839.1553-.3857.5928-.5708.9756-.4165.3848.1543.5713.5908.417.9751-.6934 1.7266-1.1953 3.4697-1.4912 5.1812C16.511 43.9972 16.1946 44.2545 15.8362 44.2545z"></path></svg>