<svg xmlns="http://www.w3.org/2000/svg" width="32" height="32" id="pipe"><path fill="#f04b4d" d="M20.5 22h3v3h-3z"></path><path fill="#015e85" d="M23.5 22.5h7v2h-7z"></path><path fill="#ffca5c" d="M2.5 15.5c-.554 0-1.069.45-1 1l1 8c.069.55.446 1 1 1h17v-4H9.875l.625-5c.069-.55-.446-1-1-1h-7z"></path><path fill="#f04b4d" d="m1.626 17.5.25 2h8.25l.25-2h-8.75z"></path><path d="M3.5 1029.363c-.822 0-1.5.678-1.5 1.5 0 .823.678 1.5 1.5 1.5h4c.286 0 .5.215.5.5a.5.5 0 1 0 1 0c0-.822-.678-1.5-1.5-1.5h-4a.488.488 0 0 1-.5-.5c0-.285.214-.5.5-.5h1a.5.5 0 1 0 0-1h-1z" color="#000" font-family="sans-serif" font-weight="400" overflow="visible" style="line-height:normal;text-indent:0;text-align:start;text-decoration-line:none;text-decoration-style:solid;text-decoration-color:#000;text-transform:none;block-progression:tb;isolation:auto;mix-blend-mode:normal" transform="translate(0 -1020.362)"></path><path d="M9.492 1027.361a.5.5 0 0 0-.492.508c0 .85-.628 1.496-1.395 1.496H5.711a.5.5 0 1 0 0 1h1.894c1.332 0 2.395-1.136 2.395-2.496a.5.5 0 0 0-.508-.508z" color="#000" font-family="sans-serif" font-weight="400" overflow="visible" style="line-height:normal;text-indent:0;text-align:start;text-decoration-line:none;text-decoration-style:solid;text-decoration-color:#000;text-transform:none;block-progression:tb;isolation:auto;mix-blend-mode:normal" transform="translate(0 -1020.362)"></path><path d="M5.5 1029.363c-.822 0-1.5.678-1.5 1.5 0 .823.678 1.5 1.5 1.5h1a.5.5 0 1 0 0-1h-1a.488.488 0 0 1-.5-.5c0-.285.214-.5.5-.5h1a.5.5 0 1 0 0-1h-1z" color="#000" font-family="sans-serif" font-weight="400" overflow="visible" style="line-height:normal;text-indent:0;text-align:start;text-decoration-line:none;text-decoration-style:solid;text-decoration-color:#000;text-transform:none;block-progression:tb;isolation:auto;mix-blend-mode:normal" transform="translate(0 -1020.362)"></path><path d="M7.492 1027.361a.5.5 0 0 0-.492.508c0 .85-.628 1.496-1.395 1.496H3.711a.5.5 0 1 0 0 1h1.894c1.332 0 2.395-1.136 2.395-2.496a.5.5 0 0 0-.508-.508zm13.008 14.5a.5.5 0 0 0-.5.5v3a.5.5 0 0 0 .5.5h3a.5.5 0 0 0 .5-.5v-3a.5.5 0 0 0-.5-.5h-3zm.5 1h2v2h-2v-2z" color="#000" font-family="sans-serif" font-weight="400" overflow="visible" style="line-height:normal;text-indent:0;text-align:start;text-decoration-line:none;text-decoration-style:solid;text-decoration-color:#000;text-transform:none;block-progression:tb;isolation:auto;mix-blend-mode:normal" transform="translate(0 -1020.362)"></path><path style="line-height:normal;text-indent:0;text-align:start;text-decoration-line:none;text-decoration-style:solid;text-decoration-color:#000;text-transform:none;block-progression:tb;isolation:auto;mix-blend-mode:normal" fill-rule="evenodd" d="M28.473 1042.432a.5.5 0 0 0-.493.507v1.854a.5.5 0 1 0 1 0v-1.853a.5.5 0 0 0-.507-.508z" color="#000" font-family="sans-serif" font-weight="400" overflow="visible" transform="translate(0 -1020.362)"></path><path d="M2.5 1035.361c-.825 0-1.607.675-1.496 1.563l1 8c.092.74.671 1.437 1.496 1.437h17a.5.5 0 0 0 .5-.5v-4a.5.5 0 0 0-.5-.5H10.441l.555-4.437c.111-.888-.671-1.563-1.496-1.563h-7zm0 1h7c.283 0 .53.228.504.44l-.625 5a.5.5 0 0 0 .496.56H20v3H3.5c-.283 0-.459-.2-.504-.56l-1-8c-.026-.212.22-.44.504-.44zm21 6a.5.5 0 0 0-.5.5v2a.5.5 0 0 0 .5.5h7a.5.5 0 0 0 .5-.5v-2a.5.5 0 0 0-.5-.5h-7zm.5 1h6v1h-6v-1z" color="#000" font-family="sans-serif" font-weight="400" overflow="visible" style="line-height:normal;text-indent:0;text-align:start;text-decoration-line:none;text-decoration-style:solid;text-decoration-color:#000;text-transform:none;block-progression:tb;isolation:auto;mix-blend-mode:normal" transform="translate(0 -1020.362)"></path><path style="line-height:normal;text-indent:0;text-align:start;text-decoration-line:none;text-decoration-style:solid;text-decoration-color:#000;text-transform:none;block-progression:tb;isolation:auto;mix-blend-mode:normal" fill-rule="evenodd" d="M2.03 1037.361a.5.5 0 1 0 0 1h7.94a.5.5 0 1 0 0-1H2.03zm0 2a.5.5 0 1 0 0 1h7.94a.5.5 0 1 0 0-1H2.03z" color="#000" font-family="sans-serif" font-weight="400" overflow="visible" transform="translate(0 -1020.362)"></path></svg>