<svg xmlns="http://www.w3.org/2000/svg" width="32" height="32" id="beer"><path fill="#ffca5c" fill-rule="evenodd" d="M21.5 8.5v17.189a1.802 1.802 0 0 1-1.801 1.811H9.293a1.802 1.802 0 0 1-1.801-1.811V8.499"></path><path fill="#eceff8" d="M11.53 3.5a2 2 0 0 0-1.579.731 1.987 1.987 0 0 0-.385 1.758l-.252-.078a2.225 2.225 0 0 0-1.939.389A2.252 2.252 0 0 0 6.5 8.083l.006.975c0 3.782 0-2.58-.006 1.203v.781c0 .805.668 1.457 1.492 1.457h.006c.825 0 1.492-.652 1.492-1.457l.006-.246.004-.035v-.248c0-.806.669-1.459 1.494-1.459h.012c.826 0 1.494.653 1.494 1.46V13.04c0 .81.67 1.461 1.5 1.461.832 0 1.5-.651 1.5-1.46V10.5a2 2 0 0 1 1-1.732c.382-.22 1.002-.238 1.24-.236.109 0 .453.075.776.144a1.995 1.995 0 0 0 3.953.17 2.001 2.001 0 0 0-1.451-2.281l-.123.096a1.838 1.838 0 0 0-1.883-1.643 1.813 1.813 0 0 0-1.53.98c-.067-.01-.143-.015-.214-.023A2.493 2.493 0 0 0 14.9 4.503c-.511.02-.99.207-1.39.506l-.104-.103h.006A1.997 1.997 0 0 0 11.53 3.5z"></path><path style="line-height:normal;text-indent:0;text-align:start;text-decoration-line:none;text-decoration-style:solid;text-decoration-color:#000;text-transform:none;block-progression:tb;isolation:auto;mix-blend-mode:normal" fill-rule="evenodd" d="M21.492 1030.346a.5.5 0 0 0-.492.507v15.198c0 .737-.573 1.31-1.3 1.31H9.292c-.728 0-1.3-.573-1.3-1.31v-13.158a.5.5 0 1 0-1 0v13.158c0 1.27 1.032 2.31 2.3 2.31h10.406c1.268 0 2.301-1.04 2.301-2.31v-15.197a.5.5 0 0 0-.508-.508z" color="#000" font-family="sans-serif" font-weight="400" overflow="visible" transform="translate(0 -1020.362)"></path><path d="M19.836 1025.008a2.335 2.335 0 0 0-2.959 1.443.5.5 0 1 0 .945.326 1.319 1.319 0 0 1 1.688-.824c.697.241 1.064.994.826 1.7a.5.5 0 1 0 .947.32 2.35 2.35 0 0 0-1.447-2.965z" color="#000" font-family="sans-serif" font-weight="400" overflow="visible" style="line-height:normal;text-indent:0;text-align:start;text-decoration-line:none;text-decoration-style:solid;text-decoration-color:#000;text-transform:none;block-progression:tb;isolation:auto;mix-blend-mode:normal" transform="translate(0 -1020.362)"></path><path d="M15.375 1024.387a3.002 3.002 0 0 0-2.799 1.207.5.5 0 0 0 .809.59 1.997 1.997 0 0 1 1.865-.805 1.997 1.997 0 0 1 1.607 1.242.5.5 0 1 0 .93-.371 3.002 3.002 0 0 0-2.412-1.863zm2.125 3.976a2.496 2.496 0 0 0-2.5 2.5.5.5 0 1 0 1 0 1.5 1.5 0 0 1 2.25-1.3.5.5 0 1 0 .5-.866 2.496 2.496 0 0 0-1.25-.334zm-9.299-2.613a2.727 2.727 0 0 0-1.133.516 2.753 2.753 0 0 0-1.068 2.18l.006.884-.002.01v.082l-.002.207-.002.985v.78c0 1.082.904 1.958 1.992 1.958h.006c1.088 0 1.992-.876 1.992-1.957l.006-.236a.5.5 0 1 0-1-.02l-.006.246a.5.5 0 0 0 0 .01c0 .527-.431.957-.992.957h-.006c-.56.01-.992-.42-.992-.948v-.726h.006v-1.267l-.006-.968c0-.544.252-1.054.68-1.384.428-.331.983-.442 1.504-.301a.5.5 0 1 0 .261-.967 2.728 2.728 0 0 0-1.244-.041zm13.52 6.611a.5.5 0 1 0 0 1h2.445c.5 0 .834.334.834.826v8.372c0 .492-.334.826-.834.826h-2.445a.5.5 0 1 0 0 1h2.445a1.833 1.833 0 0 0 1.834-1.826v-8.371a1.833 1.833 0 0 0-1.834-1.827h-2.445z" color="#000" font-family="sans-serif" font-weight="400" overflow="visible" style="line-height:normal;text-indent:0;text-align:start;text-decoration-line:none;text-decoration-style:solid;text-decoration-color:#000;text-transform:none;block-progression:tb;isolation:auto;mix-blend-mode:normal" transform="translate(0 -1020.362)"></path><path d="M10.994 1028.916c-1.09 0-1.994.877-1.994 1.959v.248a.5.5 0 1 0 1 0v-.248c0-.529.432-.959.994-.959h.012c.562 0 .994.43.994.959v2.526c0 1.084.907 1.96 2 1.96s2-.876 2-1.96v-2.31a.5.5 0 1 0-1 0v2.31c0 .533-.43.96-1 .96-.57 0-.999-.426-1-.959v-2.525c0-1.083-.905-1.96-1.994-1.96h-.012zm10.004-2.49a.5.5 0 0 0-.11.984c.756.203 1.224.94 1.089 1.711a1.495 1.495 0 0 1-1.608 1.236 1.495 1.495 0 0 1-1.369-1.496.5.5 0 1 0-1 0c0 1.293.994 2.38 2.281 2.492a2.51 2.51 0 0 0 2.682-2.058 2.508 2.508 0 0 0-1.817-2.85.5.5 0 0 0-.148-.02zm-10.506 9.281a.5.5 0 0 0-.492.508v8.943a.5.5 0 1 0 1 0v-8.943a.5.5 0 0 0-.508-.508zm4 0a.5.5 0 0 0-.492.508v8.943a.5.5 0 1 0 1 0v-8.943a.5.5 0 0 0-.508-.508zm4 0a.5.5 0 0 0-.492.508v8.943a.5.5 0 1 0 1 0v-8.943a.5.5 0 0 0-.508-.508zm-6.513-12.3a2.506 2.506 0 0 0-2.415.868 2.49 2.49 0 0 0-.373 2.535.5.5 0 0 0 .924-.384 1.484 1.484 0 0 1 .223-1.516 1.501 1.501 0 0 1 2.596.504.5.5 0 1 0 .955-.295 2.502 2.502 0 0 0-1.91-1.713z" color="#000" font-family="sans-serif" font-weight="400" overflow="visible" style="line-height:normal;text-indent:0;text-align:start;text-decoration-line:none;text-decoration-style:solid;text-decoration-color:#000;text-transform:none;block-progression:tb;isolation:auto;mix-blend-mode:normal" transform="translate(0 -1020.362)"></path></svg>