<svg xmlns="http://www.w3.org/2000/svg" viewBox="0 0 96 96" id="beer"><path fill="#4ec868" d="M44.65,27.55A53.81,53.81,0,0,0,41.34,9.47H31a54,54,0,0,0-3.32,18.09,4.85,4.85,0,0,1-1.79,3.59,15.76,15.76,0,0,0-5.55,12V89.89A5.06,5.06,0,0,0,25.36,95H46.93A5.07,5.07,0,0,0,52,89.89V43.18a15.77,15.77,0,0,0-5.56-12A4.87,4.87,0,0,1,44.65,27.55Z"></path><path fill="#4ec868" d="M25.36,90,25.3,43.18A10.82,10.82,0,0,1,29.1,35a9.88,9.88,0,0,0,3.54-7.32,49.48,49.48,0,0,1,1.93-13.16h3.15a49.42,49.42,0,0,1,1.93,13.16A9.88,9.88,0,0,0,43.19,35,10.81,10.81,0,0,1,47,43.18c0,49,0,46.67-.07,46.78Z"></path><path fill="#8feb68" d="M36.65,27.08h-1a.88.88,0,0,0-.88.81c-.36,5.11-2.33,6.73-4,8.34a.88.88,0,0,0,.61,1.52h9.53a.88.88,0,0,0,.61-1.52c-1.65-1.6-3.63-3.27-4-8.34A.88.88,0,0,0,36.65,27.08Z"></path><path fill="#2b9168" d="M46.44,31.15a4.85,4.85,0,0,1-1.79-3.59A53.77,53.77,0,0,0,41.34,9.48c-11.53,0-10.36-.06-10.43.14a53.85,53.85,0,0,0-3.27,17.94,4.83,4.83,0,0,1-1.79,3.59,15.8,15.8,0,0,0-5.55,12v46.7A5.07,5.07,0,0,0,25.37,95H46.93A5.07,5.07,0,0,0,52,89.89V43.19A15.81,15.81,0,0,0,46.44,31.15ZM29.1,35a9.86,9.86,0,0,0,3.54-7.31,49.42,49.42,0,0,1,1.93-13.16h3.15a49.29,49.29,0,0,1,1.93,13.15A9.88,9.88,0,0,0,43.19,35,10.83,10.83,0,0,1,47,43.19V86.7a1.83,1.83,0,0,1-1.82,1.82h-18a1.82,1.82,0,0,1-1.82-1.82L25.3,43.19A10.82,10.82,0,0,1,29.1,35Z"></path><path fill="#f9db4a" d="M44.3,22.11a53.43,53.43,0,0,0-3-12.64H31a53,53,0,0,0-3,12.64Z"></path><path fill="#f99f40" d="M44.3,22.12h-5a47.92,47.92,0,0,0-1.33-6.87,1.06,1.06,0,0,0-1-.77H35.38a1.06,1.06,0,0,0-1,.77A47.92,47.92,0,0,0,33,22.12H28a53.13,53.13,0,0,1,2.92-12.5c.07-.2-1.1-.14,10.43-.14A53.43,53.43,0,0,1,44.3,22.12Z"></path><path fill="#f97240" d="M38,14.75A1,1,0,0,1,37,14c-.38-1.41-.83-2.82-1.34-4.2a1,1,0,1,1,1.88-.69c.52,1.43,1,2.9,1.39,4.35A1,1,0,0,1,38,14.75Z"></path><path fill="#f9db4a" d="M32.36,41.18h7.57a1.33,1.33,0,0,1,1.33,1.33V54.82a0,0,0,0,1,0,0H31a0,0,0,0,1,0,0V42.51A1.33,1.33,0,0,1,32.36,41.18Z"></path><rect width="17.03" height="8.43" x="27.63" y="1.04" fill="#f9ef87" rx="2.29"></rect><rect width="17.03" height="5.4" x="27.63" y="4.08" fill="#f99f40" rx="2.29"></rect><path fill="#f9db4a" d="M44.66,6.37v.82a2.29,2.29,0,0,1-2.28,2.29H35.83a2.29,2.29,0,0,1-2.29-2.29V6.37a2.29,2.29,0,0,1,2.29-2.29h6.55A2.29,2.29,0,0,1,44.66,6.37Z"></path><path fill="#f99f40" d="M32.21,48h7.87A11.92,11.92,0,0,1,52,59.92V73.36A13.17,13.17,0,0,1,38.83,86.53H33.46A13.17,13.17,0,0,1,20.29,73.36V59.92A11.92,11.92,0,0,1,32.21,48Z"></path><path fill="#f9db4a" d="M28.8,56.41H42.24a8.17,8.17,0,0,1,8.17,8.17V70a8.17,8.17,0,0,1-8.17,8.17H28.8a6.92,6.92,0,0,1-6.92-6.92V63.33a6.92,6.92,0,0,1,6.92-6.92Z" transform="rotate(90 36.145 67.265)"></path><path fill="#fff" d="M30.66 60.42l-1.27.19a.9.9 0 01-1-1 3.61 3.61 0 013.36-3.54.9.9 0 01.88 1.4C31.45 59.17 31.55 60.29 30.66 60.42zM35.81 76A16.46 16.46 0 0034 77.48a.61.61 0 00.4 1.06c1.12 0 2.56 0 3.66 0a.61.61 0 00.37-1.09 24.39 24.39 0 00-2-1.44A.62.62 0 0035.81 76zM42.91 60.61l-1.28-.19a.87.87 0 01-.68-.49 12.48 12.48 0 00-1.22-2.34.9.9 0 01.81-1.46c2.09.3 3.16 1.16 3.41 3.51A.91.91 0 0142.91 60.61z"></path><path fill="#ef3351" d="M37.34,59.38l1.52,3.09a1.37,1.37,0,0,0,1,.73l3.42.49A1.33,1.33,0,0,1,44,66l-2.47,2.41a1.33,1.33,0,0,0-.38,1.17l.58,3.4a1.32,1.32,0,0,1-1.92,1.4l-3.06-1.6a1.28,1.28,0,0,0-1.23,0l-3.06,1.6a1.32,1.32,0,0,1-1.92-1.4l.58-3.4a1.33,1.33,0,0,0-.38-1.17L28.28,66A1.33,1.33,0,0,1,29,63.69l3.42-.49a1.37,1.37,0,0,0,1-.73L35,59.38A1.33,1.33,0,0,1,37.34,59.38Z"></path><path fill="#6890ef" d="M75.71,45.26c0,13.21.24,16.11-.86,21.76C71.66,83.41,72.39,78.58,71,91.37H52.31c-1-8.94-1-9.81-1.5-12.43-3.68-18.81-3.19-13.69-3.19-33.68Z"></path><path fill="#90e0ef" d="M75.71,45.26c0,13.21.24,16.11-.86,21.76C71.66,83.41,72.39,78.58,71,91.37H61.67c-.85-8-1-9.84-1.51-12.43C56.49,60.1,57,65.17,57,45.26Z"></path><path fill="#f9ae4a" d="M47.62,56.58A48.85,48.85,0,0,0,48.48,67c3.17,16.25,2.46,11.53,3.83,24.34H71c1-8.83,1-9.85,1.51-12.43,2.93-15,3.18-15.14,3.18-22.35Z"></path><path fill="#f9db4a" d="M60.55,88.36a2.81,2.81,0,0,1-2.79-2.51C57,79.13,57.49,82,54.45,66.44a5.77,5.77,0,0,1,5.7-6.86H75.71a43.94,43.94,0,0,1-.78,6.86c-3.14,16.08-2.54,12.19-3.58,21.92Z"></path><path fill="#f9814a" d="M57.76,85.86c-.36-3.36-.46-4.78-1-7.5l-1-4.93A3,3,0,0,0,50,74.58c1.46,7.5,1.08,5,2.35,16.79H71l.32-3H60.55A2.82,2.82,0,0,1,57.76,85.86Z"></path><path fill="#f9db4a" d="M71.35,88.37h0C72.15,80.84,72.2,80.37,71.35,88.37Z"></path><path fill="#fff" d="M61.24 72.71h6.9a1.82 1.82 0 001.78-1.47c.23-1.16 1.11-5.69 1.09-5.59a1.74 1.74 0 00-1.72-2.07H63.51a1.82 1.82 0 00-1.76 1.53 4.75 4.75 0 01-1.81 3.36 1.69 1.69 0 00-.69 1.68l.21 1.09A1.82 1.82 0 0061.24 72.71zM62 76.05A1.31 1.31 0 0060.7 77.6c.57 3 .77 5.27.76 5.17a1.79 1.79 0 001.78 1.6h2.91a1.79 1.79 0 001.78-1.6c.19-1.76.32-2.93.75-5.17a1.31 1.31 0 00-1.29-1.55z"></path><rect width="18.71" height="3.59" x="52.31" y="91.36" fill="#6890ef"></rect><rect width="10.11" height="3.59" x="60.92" y="91.36" fill="#90e0ef"></rect><path fill="#f9db4a" d="M71.63,41.18H51.7a4.08,4.08,0,0,0-4.08,4.07h4.27a2.83,2.83,0,0,1,2.82,2.83v8a2.15,2.15,0,0,0,1.72,2.15,2.06,2.06,0,0,0,2.41-2V48.08a2.83,2.83,0,1,1,5.65,0V50.2a2.14,2.14,0,0,0,1.72,2.15,2.07,2.07,0,0,0,2.41-2V48.08a2.83,2.83,0,0,1,2.82-2.83h4.27A4.08,4.08,0,0,0,71.63,41.18Z"></path></svg>